HIERARCHY
ROOT root
{
	OFFSET	0	13.1	24.9
	CHANNELS 6  Xposition Yposition Zposition Xrotation Yrotation Zrotation
	JOINT spine_1
	{
		OFFSET	0	9.99999	0
		CHANNELS 3  Xrotation Yrotation Zrotation
		JOINT spine_2
		{
			OFFSET	0	112	-10
			CHANNELS 3  Xrotation Yrotation Zrotation
			JOINT spine_3
			{
				OFFSET	0	206.5	19.3
				CHANNELS 3  Xrotation Yrotation Zrotation
				JOINT spine_4
				{
					OFFSET	0	110.4	14.6
					CHANNELS 3  Xrotation Yrotation Zrotation
					JOINT neck_1
					{
						OFFSET	0	71.8	-50.3
						CHANNELS 3  Xrotation Yrotation Zrotation
						JOINT neck_2
						{
							OFFSET	0	86.2	-25.8
							CHANNELS 3  Xrotation Yrotation Zrotation
							JOINT head_ee
							{
								OFFSET	0	179.8	-8.7
								CHANNELS 3  Xrotation Yrotation Zrotation
								End Site
								{
									OFFSET	1	0	0
								}
							}
						}
					}
					JOINT left_clavicle
					{
						OFFSET	-43.2	22.4	-70.8
						CHANNELS 3  Xrotation Yrotation Zrotation
						JOINT left_shoulder
						{
							OFFSET	-93.9	-5.79999	48.7
							CHANNELS 3  Xrotation Yrotation Zrotation
							JOINT left_elbow
							{
								OFFSET	-291.4	-30.8	15.2
								CHANNELS 3  Xrotation Yrotation Zrotation
								JOINT left_lowarm_twist
								{
									OFFSET	-110.7	-3.89999	13.6
									CHANNELS 3  Xrotation Yrotation Zrotation
									JOINT left_hand
									{
										OFFSET	-110.7	-3.89999	13.6
										CHANNELS 3  Xrotation Yrotation Zrotation
										JOINT left_ee
										{
											OFFSET	-80.8	-5.10001	12.1
											CHANNELS 3  Xrotation Yrotation Zrotation
											End Site
											{
												OFFSET	1	0	0
											}
										}
									}
								}
							}
						}
					}
					JOINT right_clavicle
					{
						OFFSET	43.2	22.4	-70.8
						CHANNELS 3  Xrotation Yrotation Zrotation
						JOINT right_shoulder
						{
							OFFSET	93.9	-5.79999	48.7
							CHANNELS 3  Xrotation Yrotation Zrotation
							JOINT right_elbow
							{
								OFFSET	291.4	-30.8	15.2
								CHANNELS 3  Xrotation Yrotation Zrotation
								JOINT right_lowarm_twist
								{
									OFFSET	110.7	-3.89999	13.6
									CHANNELS 3  Xrotation Yrotation Zrotation
									JOINT right_hand
									{
										OFFSET	110.7	-3.89999	13.6
										CHANNELS 3  Xrotation Yrotation Zrotation
										JOINT right_ee
										{
											OFFSET	80.8	-5.10001	12.1
											CHANNELS 3  Xrotation Yrotation Zrotation
											End Site
											{
												OFFSET	1	0	0
											}
										}
									}
								}
							}
						}
					}
				}
			}
		}
	}
	JOINT left_hip
	{
		OFFSET	-82.8	-127.5	0.300001
		CHANNELS 3  Xrotation Yrotation Zrotation
		JOINT left_knee
		{
			OFFSET	-28.2	-396.7	2.2
			CHANNELS 3  Xrotation Yrotation Zrotation
			JOINT left_ankle
			{
				OFFSET	-11.7	-411.3	35.4
				CHANNELS 3  Xrotation Yrotation Zrotation
				JOINT left_toes
				{
					OFFSET	0	-60	-88.6
					CHANNELS 3  Xrotation Yrotation Zrotation
					JOINT left_foot_ee
					{
						OFFSET	-22.5	-16.5	-42.2
						CHANNELS 3  Xrotation Yrotation Zrotation
						End Site
						{
							OFFSET	1	0	0
						}
					}
				}
			}
		}
	}
	JOINT right_hip
	{
		OFFSET	82.8	-127.5	0.300001
		CHANNELS 3  Xrotation Yrotation Zrotation
		JOINT right_knee
		{
			OFFSET	28.2	-396.7	2.2
			CHANNELS 3  Xrotation Yrotation Zrotation
			JOINT right_ankle
			{
				OFFSET	11.7	-411.3	35.4
				CHANNELS 3  Xrotation Yrotation Zrotation
				JOINT right_toes
				{
					OFFSET	0	-60	-88.6
					CHANNELS 3  Xrotation Yrotation Zrotation
					JOINT right_foot_ee
					{
						OFFSET	22.5	-16.5	-42.2
						CHANNELS 3  Xrotation Yrotation Zrotation
						End Site
						{
							OFFSET	1	0	0
						}
					}
				}
			}
		}
	}
}
MOTION
Frames: 10
Frame Time: 0.02
1400.49 703.819 -618.156 159.009 -80.1257 162.706 -1.53991 -0.431364 -2.40129 -1.53674 -0.277735 -2.42385 -1.52187 0.302402 -2.4209 -1.53004 -0.0836116 -2.43827 -4.43258 6.73424 8.46332 -4.24226 5.89526 9.76575 -0.0 0.0 -0.0 8.28927 8.44387 15.8098 22.469 -30.8413 54.745 2.96278 -55.7203 1.56632 4.70946 0.141962 -0.584634 -1.93282 -3.66663 -14.718 -0.0 0.0 -0.0 4.12536 14.3123 -7.03848 -30.9458 8.04529 -71.0328 0.349725 9.82878 -0.0300706 -7.01863 0.299519 -0.845217 -0.306685 -28.227 -9.38174 0.0 0.0 0.0 -19.5716 8.9927 0.510272 0.952603 -0.0403975 -0.140597 41.5995 10.365 -5.01717 -13.6723 0.0 0.0 -0.0 0.0 -0.0 32.8691 5.79018 -6.93057 -8.90134 -0.262886 -1.33942 3.57713 5.76319 0.534613 -38.4591 0.0 0.0 0.0 0.0 0.0 
1420.92 702.125 -613.088 157.595 -79.9334 161.073 -1.57313 -0.485293 -2.41018 -1.56995 -0.330991 -2.43616 -1.55263 0.254825 -2.44529 -1.56094 -0.134441 -2.45485 -4.56817 6.48066 8.07914 -4.3947 5.7493 9.33314 -0.0 0.0 -0.0 8.21262 8.98619 15.6335 21.5071 -30.1816 54.7258 2.94774 -55.5845 1.5539 4.01522 0.124064 -0.497757 -1.85875 -4.5426 -14.6021 -0.0 0.0 -0.0 4.18958 14.1473 -7.18777 -30.2317 8.27371 -71.062 0.404052 11.3187 -0.0400405 -7.45353 0.321463 -0.896322 -0.292764 -28.7228 -9.64048 0.0 0.0 0.0 -20.7007 8.48357 0.698249 -0.219809 0.0089888 0.0325342 40.9847 7.35742 -4.94668 -13.4289 0.0 0.0 -0.0 0.0 -0.0 32.4592 6.11307 -6.62675 -12.003 -0.305206 -1.81339 5.34346 7.66638 0.8013 -37.9602 0.0 0.0 0.0 0.0 0.0 
1443.28 697.801 -604.401 156.582 -79.16 159.89 -1.3931 -0.324138 -2.33746 -1.39008 -0.174785 -2.35333 -1.38021 0.380103 -2.32902 -1.38778 0.00761475 -2.3598 -3.89767 6.48195 7.76887 -3.73702 5.86937 9.01068 -0.0 0.0 -0.0 7.24981 9.08141 13.87 20.3606 -29.5834 55.5588 2.84308 -54.6135 1.46807 3.47913 0.109524 -0.430822 -1.77379 -4.72548 -14.0941 -0.0 0.0 -0.0 4.32773 14.2095 -7.47573 -29.0664 8.44631 -70.627 0.43424 12.1401 -0.0461774 -7.69627 0.333881 -0.924775 -0.246417 -28.7832 -9.91619 0.0 0.0 0.0 -22.1543 7.93993 0.785098 -1.25921 0.0497963 0.186823 40.2106 4.63272 -4.87605 -13.1349 0.0 0.0 -0.0 0.0 -0.0 31.8884 5.71622 -7.23273 -14.569 -0.320788 -2.20677 4.75069 9.1899 0.71944 -37.7334 0.0 0.0 0.0 0.0 0.0 
1463.49 688.759 -596.804 157.517 -78.9073 161.019 -1.28795 -0.237037 -2.37463 -1.28481 -0.0854967 -2.3849 -1.27871 0.470228 -2.33967 -1.28634 0.0949297 -2.38454 -3.6941 6.27015 7.45926 -3.54592 5.68645 8.65852 -0.0 0.0 -0.0 7.13629 9.38872 13.6514 19.9128 -28.7147 56.0556 2.80714 -54.2689 1.43883 2.58779 0.0839623 -0.319834 -1.74554 -3.89885 -13.5239 -0.0 0.0 -0.0 4.48868 14.0279 -7.8311 -28.3656 8.76033 -70.3387 0.473845 13.21 -0.054868 -7.93515 0.346219 -0.952724 -0.19195 -28.5317 -10.1239 0.0 0.0 0.0 -23.5401 7.12882 0.210507 -2.04535 0.0787957 0.303986 40.8048 2.54872 -4.93072 -12.5939 0.0 0.0 -0.0 0.0 -0.0 31.457 5.65634 -7.81516 -14.8176 -0.321361 -2.2449 6.09449 10.7411 0.927069 -38.8985 0.0 0.0 0.0 0.0 0.0 
1488.15 689.069 -591.184 158.926 -79.1672 162.391 -1.00102 -0.163376 -2.32932 -0.998003 -0.0148647 -2.335 -0.995279 0.516131 -2.27732 -1.00249 0.150097 -2.33022 -3.38918 6.12684 7.07093 -3.25567 5.67574 8.23439 -0.0 0.0 -0.0 5.44898 9.53719 10.6335 19.6313 -27.6064 59.6455 2.80236 -54.2226 1.43495 1.99043 0.0658658 -0.245678 -1.68575 -2.93743 -12.6747 -0.0 0.0 -0.0 4.56052 13.8868 -7.99417 -27.4464 8.19256 -70.5299 0.490935 13.6689 -0.0588402 -7.99473 0.349314 -0.959687 -0.0768339 -28.5293 -10.7566 0.0 0.0 0.0 -24.2427 6.39633 0.0235693 -2.99557 0.111695 0.446103 39.5298 2.79398 -4.8205 -12.694 0.0 0.0 -0.0 0.0 -0.0 29.6816 5.78026 -7.98532 -14.4575 -0.320477 -2.18966 4.61604 12.3367 0.712668 -40.076 0.0 0.0 0.0 0.0 0.0 
1510.42 690.899 -587.158 159.369 -79.1489 162.787 -0.769463 -0.0896574 -2.29933 -0.766523 0.056797 -2.30037 -0.767014 0.569212 -2.2296 -0.77389 0.210043 -2.29147 -2.80538 5.86499 6.41061 -2.69475 5.62378 7.50793 -0.0 0.0 -0.0 6.04369 10.1079 11.6778 16.7334 -26.996 58.5476 2.69303 -53.1354 1.34686 1.47251 0.04955 -0.181536 -1.6835 -2.37762 -12.4047 -0.0 0.0 -0.0 4.65201 14.2359 -8.16182 -26.3987 9.31569 -70.2774 0.510322 14.1872 -0.0635067 -8.2144 0.36079 -0.985332 -0.089289 -28.199 -10.5708 0.0 0.0 0.0 -24.5269 5.93039 -0.099074 -3.81919 0.138299 0.569705 39.5465 0.663081 -4.83219 -12.1836 0.0 0.0 -0.0 0.0 -0.0 28.1616 5.88233 -8.0529 -14.2059 -0.319654 -2.15107 5.95194 12.4123 0.915325 -40.1696 0.0 0.0 0.0 0.0 0.0 
1533.98 690.157 -584.104 159.138 -80.2907 162.354 -0.725071 -0.0388914 -2.28369 -0.722175 0.106466 -2.28154 -0.724755 0.611825 -2.20059 -0.731422 0.256699 -2.26955 -1.23088 5.17488 4.91868 -1.16264 5.34606 5.84067 -0.0 0.0 -0.0 5.54602 10.2598 10.799 15.7928 -26.2097 59.825 2.64505 -52.6402 1.30859 0.740226 0.0254925 -0.0911012 -1.52908 -2.00862 -11.1782 -0.0 0.0 -0.0 4.25833 14.6102 -7.29675 -24.6906 9.24759 -71.5783 0.536103 14.8729 -0.0699751 -8.24989 0.362653 -0.989472 -0.129052 -28.621 -10.5017 0.0 0.0 0.0 -22.7935 5.51493 -0.52557 -8.2868 0.251458 1.24581 38.7978 -0.136314 -4.77207 -10.8162 0.0 0.0 -0.0 0.0 -0.0 27.4177 5.91909 -7.64119 -14.0617 -0.319105 -2.12895 3.68929 13.4397 0.575523 -39.5731 0.0 0.0 0.0 0.0 0.0 
1560.23 703.627 -578.613 157.519 -80.8489 160.631 -0.695091 -0.288023 -2.31581 -0.692119 -0.14012 -2.32943 -0.68438 0.380296 -2.30246 -0.691778 0.0119959 -2.33361 -0.648834 6.05572 4.61843 -0.577922 7.09614 5.61514 -0.0 0.0 -0.0 2.73681 9.90228 5.89883 13.3914 -24.4683 66.2547 2.7095 -53.3028 1.36005 -0.622647 -0.0223544 0.0763742 -1.37118 -2.18209 -10.1779 -0.0 0.0 -0.0 3.58433 13.8989 -5.9272 -21.3954 10.3308 -71.5856 0.549303 15.2223 -0.0734021 -8.66884 0.384842 -1.03825 -0.0797222 -28.8615 -10.8579 0.0 0.0 0.0 -20.5286 5.12826 -0.742238 -11.1443 0.296059 1.68196 33.8756 1.45833 -4.29967 -11.8266 0.0 0.0 -0.0 0.0 -0.0 24.3551 6.55797 -7.38907 -12.7292 -0.311403 -1.92465 5.13015 11.8084 0.788035 -36.085 0.0 0.0 0.0 0.0 0.0 
1579.46 708.575 -577.276 155.215 -81.3156 158.077 -0.694169 -0.376311 -2.09542 -0.691759 -0.242243 -2.1151 -0.681006 0.23293 -2.11615 -0.68724 -0.104121 -2.12638 -0.74122 5.4453 3.42798 -0.692444 6.97981 4.27969 -0.0 0.0 -0.0 1.63344 9.45719 3.95555 11.7537 -24.9356 68.4825 2.47029 -50.7368 1.17145 -0.424183 -0.0151387 0.0520565 -1.20917 -1.44713 -8.74767 -0.0 0.0 -0.0 3.10817 13.8954 -4.92168 -18.0601 11.0874 -72.5292 0.565587 15.6517 -0.0777365 -8.88645 0.396508 -1.06352 -0.00527864 -28.9598 -11.3011 0.0 0.0 0.0 -19.0414 4.78396 -0.953096 -14.1799 0.319559 2.14708 29.295 3.06423 -3.81796 -11.8727 0.0 0.0 -0.0 0.0 -0.0 22.4324 6.40191 -6.86965 -12.4259 -0.308987 -1.87819 4.28729 12.2998 0.662448 -34.8769 0.0 0.0 0.0 0.0 0.0 
1593.63 711.964 -573.807 155.186 -80.3451 157.909 -0.657008 -0.320581 -1.98505 -0.654837 -0.193644 -2.00142 -0.64651 0.253918 -1.99467 -0.652057 -0.0642238 -2.00974 -0.198267 6.2166 3.30602 -0.137498 8.39828 4.21666 -0.0 0.0 -0.0 0.467803 9.25689 1.91114 10.8164 -24.6088 70.6917 2.2679 -48.3206 1.01745 -0.432741 -0.0154481 0.0531057 -1.12629 -0.521691 -7.77504 -0.0 0.0 -0.0 3.154 14.2561 -4.98674 -16.3765 12.165 -72.3811 0.569445 15.7532 -0.0787805 -8.84971 0.394532 -1.05925 0.0726917 -28.986 -11.7388 0.0 0.0 0.0 -17.951 4.48454 -0.866406 -17.3557 0.317745 2.63427 26.9212 4.51424 -3.5522 -12.4335 0.0 0.0 -0.0 0.0 -0.0 20.5633 6.53383 -7.09772 -12.2029 -0.307053 -1.84402 6.52318 12.0644 0.998966 -32.4263 0.0 0.0 0.0 0.0 0.0 
